<?xml version="1.0" encoding="utf-8"?>
<!-- Generator: Adobe Illustrator 16.0.4, SVG Export Plug-In . SVG Version: 6.00 Build 0)  -->
<!DOCTYPE svg PUBLIC "-//W3C//DTD SVG 1.1//EN" "http://www.w3.org/Graphics/SVG/1.1/DTD/svg11.dtd">
<svg version="1.1" id="Capa_1" xmlns="http://www.w3.org/2000/svg" xmlns:xlink="http://www.w3.org/1999/xlink" x="0px" y="0px"
	 width="340px" height="55px" viewBox="0 0 340 55" enable-background="new 0 0 340 55" xml:space="preserve">
<path fill="#393939" d="M159.667,52.166c0,1.564-1.269,2.834-2.834,2.834H2.834C1.269,55,0,53.73,0,52.166V2.834
	C0,1.269,1.269,0,2.834,0h153.998c1.565,0,2.834,1.269,2.834,2.834V52.166z"/>
<path fill="#393939" d="M340,52.166c0,1.564-1.27,2.834-2.834,2.834H183.168c-1.566,0-2.835-1.27-2.835-2.834V2.834
	c0-1.565,1.269-2.834,2.835-2.834h153.998C338.73,0,340,1.269,340,2.834V52.166z"/>
<g>
	<path fill-rule="evenodd" clip-rule="evenodd" fill="#FFFFFF" d="M209.227,10.221h-13.45c-1.653,0-3.45,1.991-3.45,3.356V41.8
		c0,1.479,1.616,3.12,3.119,3.12h14.16c1.495,0,3.072-1.678,3.072-3.072V13.671C212.678,11.63,210.865,10.221,209.227,10.221z
		 M202.494,44.081c-1.088,0-1.97-0.882-1.97-1.97s0.882-1.969,1.97-1.969s1.969,0.881,1.969,1.969S203.582,44.081,202.494,44.081z
		 M210.25,39.036h-15.534V15.861h15.534V39.036z"/>
</g>
<g>
	<path fill="#FFFFFF" d="M225.606,37.409l-1.509,4.966h-3.302l5.616-17.524h4.082l5.694,17.524h-3.432l-1.587-4.966H225.606z
		 M230.624,34.99l-1.378-4.315c-0.338-1.066-0.624-2.262-0.884-3.276h-0.052c-0.26,1.014-0.521,2.236-0.832,3.276l-1.353,4.315
		H230.624z"/>
	<path fill="#FFFFFF" d="M237.981,33.925c0-1.664-0.052-3.017-0.104-4.212h2.808l0.156,1.949h0.052
		c0.937-1.43,2.418-2.235,4.343-2.235c2.912,0,5.33,2.496,5.33,6.448c0,4.576-2.887,6.786-5.772,6.786
		c-1.586,0-2.912-0.676-3.562-1.69h-0.052v6.553h-3.198V33.925z M241.18,37.07c0,0.312,0.026,0.599,0.104,0.885
		c0.312,1.3,1.456,2.236,2.808,2.236c2.028,0,3.225-1.69,3.225-4.187c0-2.236-1.093-4.057-3.146-4.057
		c-1.326,0-2.548,0.962-2.86,2.366c-0.078,0.26-0.13,0.546-0.13,0.807V37.07z"/>
	<path fill="#FFFFFF" d="M252.671,33.925c0-1.664-0.052-3.017-0.104-4.212h2.808l0.156,1.949h0.052
		c0.937-1.43,2.418-2.235,4.343-2.235c2.912,0,5.33,2.496,5.33,6.448c0,4.576-2.887,6.786-5.772,6.786
		c-1.586,0-2.912-0.676-3.562-1.69h-0.052v6.553h-3.198V33.925z M255.869,37.07c0,0.312,0.026,0.599,0.104,0.885
		c0.312,1.3,1.456,2.236,2.808,2.236c2.028,0,3.225-1.69,3.225-4.187c0-2.236-1.093-4.057-3.146-4.057
		c-1.326,0-2.548,0.962-2.86,2.366c-0.078,0.26-0.13,0.546-0.13,0.807V37.07z"/>
	<path fill="#FFFFFF" d="M272.275,38.891c1.039,0.599,2.6,1.118,4.237,1.118c2.055,0,3.198-0.962,3.198-2.392
		c0-1.326-0.884-2.106-3.12-2.912c-2.886-1.04-4.731-2.574-4.731-5.097c0-2.86,2.392-5.044,6.188-5.044
		c1.898,0,3.303,0.416,4.213,0.884l-0.78,2.574c-0.624-0.338-1.847-0.832-3.484-0.832c-2.028,0-2.912,1.092-2.912,2.106
		c0,1.352,1.014,1.976,3.354,2.886c3.042,1.144,4.523,2.678,4.523,5.2c0,2.809-2.132,5.252-6.656,5.252
		c-1.846,0-3.77-0.52-4.731-1.092L272.275,38.891z"/>
	<path fill="#FFFFFF" d="M288.862,26.099v3.614h3.042v2.392h-3.042v5.591c0,1.533,0.416,2.34,1.639,2.34
		c0.546,0,0.962-0.078,1.248-0.156l0.052,2.444c-0.468,0.182-1.3,0.312-2.314,0.312c-1.17,0-2.158-0.39-2.756-1.04
		c-0.676-0.728-0.988-1.872-0.988-3.536v-5.954h-1.819v-2.392h1.819v-2.86L288.862,26.099z"/>
	<path fill="#FFFFFF" d="M305.842,35.927c0,4.654-3.276,6.734-6.501,6.734c-3.588,0-6.344-2.47-6.344-6.526
		c0-4.16,2.729-6.708,6.552-6.708C303.319,29.427,305.842,32.078,305.842,35.927z M296.299,36.057c0,2.444,1.196,4.29,3.146,4.29
		c1.82,0,3.094-1.794,3.094-4.342c0-1.977-0.884-4.238-3.068-4.238C297.209,31.767,296.299,33.951,296.299,36.057z"/>
	<path fill="#FFFFFF" d="M307.946,33.795c0-1.717-0.025-2.938-0.104-4.082h2.782l0.104,2.418h0.104
		c0.624-1.795,2.105-2.704,3.458-2.704c0.312,0,0.494,0.026,0.754,0.077v3.017c-0.26-0.052-0.546-0.104-0.937-0.104
		c-1.534,0-2.573,0.987-2.859,2.418c-0.053,0.286-0.104,0.624-0.104,0.987v6.553h-3.198V33.795z"/>
	<path fill="#FFFFFF" d="M318.944,36.94c0.077,2.288,1.872,3.276,3.899,3.276c1.482,0,2.549-0.208,3.511-0.572l0.468,2.211
		c-1.092,0.441-2.6,0.779-4.42,0.779c-4.108,0-6.526-2.521-6.526-6.396c0-3.51,2.132-6.812,6.188-6.812
		c4.107,0,5.46,3.38,5.46,6.162c0,0.598-0.052,1.065-0.104,1.352H318.944z M324.508,34.705c0.026-1.17-0.494-3.095-2.626-3.095
		c-1.976,0-2.808,1.794-2.938,3.095H324.508z"/>
</g>
<g>
	<g>
		<g>
			<path fill="#FFFFFF" d="M117.838,40.769c-0.62,0-1.185-0.114-1.697-0.343c-0.512-0.229-0.942-0.58-1.289-1.055h-0.104
				c0.069,0.556,0.104,1.082,0.104,1.58v3.915h-1.44V31.081h1.171l0.2,1.302h0.069c0.371-0.521,0.802-0.896,1.293-1.129
				c0.492-0.23,1.057-0.347,1.693-0.347c1.262,0,2.236,0.431,2.921,1.293c0.685,0.863,1.029,2.072,1.029,3.629
				c0,1.562-0.35,2.776-1.046,3.643C120.045,40.336,119.077,40.769,117.838,40.769z M117.63,32.131c-0.972,0-1.675,0.27-2.109,0.808
				c-0.433,0.538-0.656,1.395-0.668,2.569v0.321c0,1.337,0.223,2.294,0.668,2.869c0.446,0.576,1.161,0.863,2.144,0.863
				c0.822,0,1.466-0.332,1.932-0.997c0.466-0.666,0.699-1.583,0.699-2.753c0-1.186-0.233-2.096-0.699-2.729
				C119.131,32.448,118.476,32.131,117.63,32.131z"/>
			<path fill="#FFFFFF" d="M125.125,40.595h-1.44V27.088h1.44V40.595z"/>
			<path fill="#FFFFFF" d="M133.409,40.595l-0.287-1.354h-0.069c-0.474,0.597-0.947,1.001-1.419,1.211
				c-0.472,0.212-1.061,0.317-1.767,0.317c-0.943,0-1.683-0.243-2.218-0.729c-0.536-0.486-0.803-1.177-0.803-2.074
				c0-1.921,1.537-2.928,4.609-3.021l1.615-0.052v-0.59c0-0.747-0.16-1.299-0.481-1.654c-0.322-0.355-0.836-0.534-1.542-0.534
				c-0.793,0-1.69,0.243-2.69,0.729l-0.444-1.103c0.47-0.254,0.982-0.454,1.542-0.599s1.118-0.217,1.68-0.217
				c1.133,0,1.975,0.251,2.521,0.755c0.546,0.504,0.82,1.311,0.82,2.422v6.493H133.409z M130.154,39.579
				c0.897,0,1.602-0.246,2.114-0.737c0.512-0.492,0.769-1.181,0.769-2.066v-0.859l-1.441,0.061
				c-1.146,0.041-1.972,0.219-2.478,0.534s-0.759,0.806-0.759,1.472c0,0.521,0.157,0.917,0.473,1.188
				C129.146,39.443,129.586,39.579,130.154,39.579z"/>
			<path fill="#FFFFFF" d="M135.313,31.081h1.544l2.083,5.425c0.457,1.239,0.742,2.133,0.851,2.684h0.07
				c0.075-0.296,0.233-0.801,0.473-1.516c0.241-0.715,1.026-2.912,2.356-6.593h1.546l-4.088,10.833
				c-0.406,1.071-0.878,1.83-1.42,2.279c-0.541,0.448-1.205,0.673-1.992,0.673c-0.44,0-0.874-0.05-1.303-0.147v-1.154
				c0.318,0.069,0.674,0.104,1.069,0.104c0.989,0,1.695-0.556,2.118-1.666l0.529-1.354L135.313,31.081z"/>
		</g>
		<g>
			<path fill="#FFFFFF" d="M91.145,31.965c0.458,0.378,1.413,1.174,1.413,2.688c0,1.471-0.835,2.169-1.671,2.824
				c-0.259,0.259-0.558,0.538-0.558,0.977c0,0.437,0.299,0.676,0.519,0.855l0.717,0.556c0.875,0.736,1.67,1.414,1.67,2.788
				c0,1.869-1.811,3.76-5.233,3.76c-2.886,0-4.278-1.373-4.278-2.847c0-0.716,0.356-1.73,1.532-2.428
				c1.232-0.756,2.906-0.854,3.801-0.915c-0.28-0.358-0.597-0.736-0.597-1.353c0-0.338,0.1-0.537,0.198-0.776
				c-0.22,0.02-0.438,0.039-0.637,0.039c-2.108,0-3.302-1.571-3.302-3.123c0-0.916,0.418-1.931,1.272-2.667
				c1.135-0.935,2.488-1.095,3.563-1.095h4.099l-1.273,0.717H91.145z M89.732,40.801c-0.159-0.021-0.26-0.021-0.457-0.021
				c-0.179,0-1.255,0.04-2.09,0.319c-0.438,0.158-1.711,0.636-1.711,2.05c0,1.412,1.373,2.428,3.502,2.428
				c1.91,0,2.926-0.917,2.926-2.149C91.902,42.411,91.244,41.876,89.732,40.801z M90.309,37.02c0.457-0.458,0.496-1.095,0.496-1.453
				c0-1.433-0.854-3.661-2.506-3.661c-0.519,0-1.075,0.259-1.393,0.657c-0.338,0.418-0.438,0.954-0.438,1.473
				c0,1.333,0.776,3.541,2.488,3.541C89.453,37.576,89.99,37.338,90.309,37.02z"/>
			<path fill="#FFFFFF" d="M78.617,40.482c-3.159,0-4.848-2.464-4.848-4.689c0-2.604,2.125-4.827,5.146-4.827
				c2.919,0,4.747,2.284,4.747,4.688C83.663,37.998,81.856,40.482,78.617,40.482z M81.101,38.873
				c0.477-0.636,0.597-1.431,0.597-2.206c0-1.748-0.834-5.086-3.298-5.086c-0.656,0-1.311,0.259-1.788,0.677
				c-0.775,0.694-0.915,1.568-0.915,2.425c0,1.965,0.974,5.202,3.378,5.202C79.849,39.885,80.645,39.508,81.101,38.873z"/>
			<path fill="#FFFFFF" d="M67.849,40.482c-3.159,0-4.848-2.464-4.848-4.689c0-2.604,2.126-4.827,5.146-4.827
				c2.92,0,4.748,2.284,4.748,4.688C72.895,37.998,71.087,40.482,67.849,40.482z M70.332,38.873
				c0.477-0.636,0.597-1.431,0.597-2.206c0-1.748-0.835-5.086-3.299-5.086c-0.655,0-1.311,0.259-1.788,0.677
				c-0.775,0.694-0.914,1.568-0.914,2.425c0,1.965,0.973,5.202,3.378,5.202C69.081,39.885,69.875,39.508,70.332,38.873z"/>
			<path fill="#FFFFFF" d="M61.483,40.171l-2.856,0.659c-1.159,0.181-2.198,0.339-3.295,0.339c-5.514,0-7.61-4.055-7.61-7.231
				c0-3.874,2.976-7.469,8.07-7.469c1.079,0,2.117,0.159,3.056,0.419c1.498,0.42,2.197,0.938,2.637,1.238l-1.658,1.578l-0.699,0.159
				l0.499-0.8c-0.679-0.658-1.918-1.876-4.274-1.876c-3.156,0-5.533,2.397-5.533,5.893c0,3.755,2.717,7.29,7.07,7.29
				c1.28,0,1.938-0.259,2.537-0.5v-3.215l-3.016,0.159l1.597-0.859h4.235l-0.519,0.499c-0.141,0.12-0.16,0.161-0.2,0.319
				c-0.021,0.181-0.04,0.76-0.04,0.959V40.171z"/>
			<path fill="#FFFFFF" d="M97.458,39.596c-0.66-0.06-0.797-0.18-0.797-0.96v-0.219V27.331c0.003-0.043,0.007-0.087,0.01-0.129
				c0.081-0.698,0.28-0.818,0.9-1.179h-2.857l-1.499,0.72h1.526v0.009l-0.001-0.007v11.672v0.659c0,0.399-0.078,0.46-0.539,1.059
				h3.536l0.739-0.438C98.139,39.655,97.798,39.636,97.458,39.596z"/>
			<path fill="#FFFFFF" d="M105.586,39.779c-0.217,0.119-0.436,0.259-0.653,0.357c-0.656,0.297-1.331,0.377-1.926,0.377
				c-0.633,0-1.625-0.041-2.638-0.774c-1.408-0.992-2.023-2.698-2.023-4.186c0-3.074,2.5-4.582,4.543-4.582
				c0.713,0,1.448,0.179,2.044,0.556c0.99,0.653,1.249,1.507,1.387,1.963l-4.661,1.886l-1.528,0.119
				c0.495,2.519,2.201,3.985,4.086,3.985c1.011,0,1.746-0.356,2.42-0.693L105.586,39.779z M103.723,33.867
				c0.376-0.139,0.574-0.258,0.574-0.535c0-0.793-0.893-1.706-1.964-1.706c-0.794,0-2.281,0.615-2.281,2.757
				c0,0.338,0.039,0.694,0.061,1.053L103.723,33.867z"/>
			<g>
				<path fill="#FFFFFF" d="M107.5,31.107v1.309h-0.159v-1.309h-0.433v-0.136h1.025v0.136H107.5z"/>
				<path fill="#FFFFFF" d="M109.285,32.416v-1.32h-0.007l-0.403,1.32h-0.125l-0.406-1.32h-0.006v1.32h-0.145v-1.444h0.248
					l0.369,1.168h0.004l0.363-1.168h0.251v1.444H109.285z"/>
			</g>
		</g>
	</g>
	<g id="PLAY">
		<defs>
			<path id="SVGID_1_" d="M34.402,21.823L27.608,17.9c0,0-12.378-7.147-13.105-7.567c-0.728-0.42-1.453-0.166-1.453,0.712
				c0,1.462,0,15.26,0,15.26s0,14.911,0,15.569s0.518,0.942,1.15,0.577c0.632-0.365,13.408-7.741,13.408-7.741l6.794-3.923
				c0,0,5.765-3.328,6.531-3.77s0.692-1.05,0.046-1.398C40.332,25.271,34.402,21.823,34.402,21.823z"/>
		</defs>
		<clipPath id="SVGID_2_">
			<use xlink:href="#SVGID_1_"  overflow="visible"/>
		</clipPath>
		<linearGradient id="SVGID_3_" gradientUnits="userSpaceOnUse" x1="21.4653" y1="9.6162" x2="21.4653" y2="42.9951">
			<stop  offset="0" style="stop-color:#0D76AB"/>
			<stop  offset="0.2974" style="stop-color:#3E8EAF"/>
			<stop  offset="0.7707" style="stop-color:#64B1AF"/>
			<stop  offset="1" style="stop-color:#71BDAC"/>
		</linearGradient>
		<polygon clip-path="url(#SVGID_2_)" fill="url(#SVGID_3_)" points="13.05,9.616 13.05,26.306 13.05,42.995 29.881,26.306 		"/>
		<linearGradient id="SVGID_4_" gradientUnits="userSpaceOnUse" x1="13.0498" y1="17.9004" x2="34.4019" y2="17.9004">
			<stop  offset="0" style="stop-color:#44B1A0"/>
			<stop  offset="1" style="stop-color:#D6E291"/>
		</linearGradient>
		<polygon clip-path="url(#SVGID_2_)" fill="url(#SVGID_4_)" points="34.402,21.823 27.608,17.9 13.05,9.495 13.05,9.616 
			29.881,26.306 		"/>
		<linearGradient id="SVGID_5_" gradientUnits="userSpaceOnUse" x1="23.7261" y1="26.3062" x2="23.7261" y2="43.1162">
			<stop  offset="0" style="stop-color:#E23834"/>
			<stop  offset="0.1632" style="stop-color:#D23949"/>
			<stop  offset="0.573" style="stop-color:#A23A72"/>
			<stop  offset="0.8613" style="stop-color:#853B89"/>
			<stop  offset="1" style="stop-color:#7A3B8F"/>
		</linearGradient>
		<polygon clip-path="url(#SVGID_2_)" fill="url(#SVGID_5_)" points="13.05,42.995 13.05,43.116 27.608,34.711 34.402,30.788 
			29.881,26.306 		"/>
		<linearGradient id="SVGID_6_" gradientUnits="userSpaceOnUse" x1="36.0239" y1="21.8232" x2="36.0239" y2="30.7881">
			<stop  offset="0" style="stop-color:#EA7D6F"/>
			<stop  offset="0.1528" style="stop-color:#EC8970"/>
			<stop  offset="0.7236" style="stop-color:#F4B16F"/>
			<stop  offset="1" style="stop-color:#F7C06D"/>
		</linearGradient>
		<polygon clip-path="url(#SVGID_2_)" fill="url(#SVGID_6_)" points="34.402,21.823 29.881,26.306 34.402,30.788 42.167,26.306 		
			"/>
	</g>
</g>
</svg>
